# xmcd
#
# Track frame offsets:
#	150
#	15437
#	27332
#	39170
#	50240
#	57057
#	68102
#	79392
#	90040
#	98140
#	109497
#	121970
#	130020
#	143067
#
# Disc length: 2072 seconds
#
# Revision: 1
# Processed by: cddbd v1.5.1PL2 Copyright (c) Steve Scherf et al.
# Submitted via: audiograbber 1.83.01
#
DISCID=b008160e
DTITLE=Various Artist - Performance The Outlaws
DYEAR=1990
DGENRE=
TTITLE0=Face Of A Fighter -W.Nelson
TTITLE1=End Of Understanding - W.Nelson
TTITLE2=Some Other Time - W.Nelson
TTITLE3=Dream Baby - W.Jennings
TTITLE4=It's So Easy To Fall In Love - W.Jennings
TTITLE5=Big Mamou - W.Jennings
TTITLE6=Oh Lonsome Me - J.Cash
TTITLE7=You Win Again - J.Cash
TTITLE8=I Can't Help It - J.Cash
TTITLE9=Take This Job And Shove It - J Paycheck
TTITLE10=Jeannie In A Bottle - J.Paycheck
TTITLE11=Your Cheatin' Heart - F.Young
TTITLE12=I Fall To Pieces - F.Young
TTITLE13=Muddy Water - St. Jackson
EXTD=
EXTT0=
EXTT1=
EXTT2=
EXTT3=
EXTT4=
EXTT5=
EXTT6=
EXTT7=
EXTT8=
EXTT9=
EXTT10=
EXTT11=
EXTT12=
EXTT13=
PLAYORDER=
